<svg id="Layer_1" data-name="Layer 1" xmlns="http://www.w3.org/2000/svg" viewBox="0 0 48 48"><defs><style>.cls-1{fill:#5b3c88;}.cls-2{fill:#fff;}</style></defs><title>jwlibrary-trademark-color</title><rect class="cls-1" width="38" height="38"/><path class="cls-2" d="M7.1,24.9h.62v4.21H9.88v.55H7.1Zm3.39,0h.62v4.76h-.62Zm1.56,0h1.49a2.22,2.22,0,0,1,.59.07,1.38,1.38,0,0,1,.47.23,1.13,1.13,0,0,1,.32.4,1.22,1.22,0,0,1,.12.56,1.12,1.12,0,0,1-.06.38.82.82,0,0,1-.14.28.7.7,0,0,1-.21.21,1.28,1.28,0,0,1-.25.15,1.35,1.35,0,0,1,.63.42,1.17,1.17,0,0,1,.26.78,1.2,1.2,0,0,1-.47.94,1.53,1.53,0,0,1-.53.25,2.4,2.4,0,0,1-.69.09H12.05Zm2.36,1.28a.72.72,0,0,0-.22-.54,1,1,0,0,0-.67-.2h-.85V27h.81a1.06,1.06,0,0,0,.68-.2A.7.7,0,0,0,14.41,26.18Zm.23,2.11a.71.71,0,0,0-.28-.58,1.36,1.36,0,0,0-.82-.21h-.87v1.62h.93a1.23,1.23,0,0,0,.76-.22A.73.73,0,0,0,14.64,28.29Zm1.3-3.39h1.58a2.51,2.51,0,0,1,.62.08,1.64,1.64,0,0,1,.53.26,1.2,1.2,0,0,1,.36.44,1.36,1.36,0,0,1,.14.63,1.35,1.35,0,0,1-.09.5,1.23,1.23,0,0,1-.24.38,1.17,1.17,0,0,1-.35.27,1.59,1.59,0,0,1-.43.16l1.3,2h-.74L17.4,27.72h-.85v1.94h-.61Zm1.49,2.27a1.27,1.27,0,0,0,.8-.22.73.73,0,0,0,.29-.62.8.8,0,0,0-.29-.65,1.17,1.17,0,0,0-.74-.23h-.94v1.72Zm6.88-2.27h1.58a2.57,2.57,0,0,1,.62.08,1.5,1.5,0,0,1,.52.26,1.14,1.14,0,0,1,.37.44,1.36,1.36,0,0,1,.13.63,1.59,1.59,0,0,1-.08.5,1.23,1.23,0,0,1-.24.38,1.31,1.31,0,0,1-.35.27,1.72,1.72,0,0,1-.43.16l1.3,2H27l-1.23-1.94h-.84v1.94h-.61Zm1.49,2.27a1.27,1.27,0,0,0,.8-.22.73.73,0,0,0,.29-.62.8.8,0,0,0-.29-.65,1.18,1.18,0,0,0-.75-.23h-.93v1.72Zm3.59.57L27.71,24.9h.72l1.28,2.2L31,24.9h.7L30,27.73v1.93h-.62Zm-18.6-6.12a3.2,3.2,0,0,0,2.72-1.13,4.91,4.91,0,0,0,.87-3v-9H12.69v9.07a3.25,3.25,0,0,1-.51,1.93,1.74,1.74,0,0,1-1.5.72,3.18,3.18,0,0,1-1.33-.29,6.38,6.38,0,0,1-1.23-.77L7.4,20.4a6.89,6.89,0,0,0,1.45.87,4.67,4.67,0,0,0,1.94.35M19,21.49h1.45l3.08-9.77,2.79,9.77h1.46L30.94,8.41H29.2S27.12,17.86,27,18.35L24.24,8.91H22.82l-2.9,9.44-2.1-9.94H16Zm3.71,6.76H20.9l-.5,1.41h-.63l1.74-4.77h.59l1.74,4.77h-.65Zm-1.59-.54h1.4l-.71-2Z"/><path id="Combined-Shape" class="cls-1" d="M40,34a4,4,0,0,1,1.16-2.84,4.09,4.09,0,0,1,1.26-.86,4,4,0,0,1,3.1,0,4.13,4.13,0,0,1,1.27.86,4,4,0,0,1,.85,1.28A3.85,3.85,0,0,1,48,34a3.92,3.92,0,0,1-.32,1.56,4.06,4.06,0,0,1-.85,1.26,4.13,4.13,0,0,1-1.27.86,4,4,0,0,1-3.1,0,4.09,4.09,0,0,1-1.26-.86A3.94,3.94,0,0,1,40,34Zm.56,0a3.29,3.29,0,0,0,.27,1.33,3.56,3.56,0,0,0,.74,1.09,3.52,3.52,0,0,0,1.08.74,3.25,3.25,0,0,0,1.32.27,3.29,3.29,0,0,0,1.33-.27,3.45,3.45,0,0,0,1.09-.74,3.37,3.37,0,0,0,.73-1.09,3.47,3.47,0,0,0-.73-3.77,3.45,3.45,0,0,0-1.09-.74A3.29,3.29,0,0,0,44,30.56a3.25,3.25,0,0,0-1.32.27,3.51,3.51,0,0,0-1.82,1.84A3.31,3.31,0,0,0,40.6,34Zm1.9-2.07H44a2.35,2.35,0,0,1,.6.08,1.37,1.37,0,0,1,.5.24,1.16,1.16,0,0,1,.36.4,1.31,1.31,0,0,1,.13.58,1.17,1.17,0,0,1-.25.79,1.41,1.41,0,0,1-.6.4l1.36,1.66h-1l-1.2-1.53h-.62v1.53H42.5ZM44,33.8a1.06,1.06,0,0,0,.58-.14.45.45,0,0,0,.21-.4.46.46,0,0,0-.21-.41,1,1,0,0,0-.55-.14h-.67V33.8Z"/></svg>